<svg xmlns="http://www.w3.org/2000/svg" viewBox="0 0 64 64" fill="none">
  <defs>
    <linearGradient id="rocketStroke" x1="10" y1="54" x2="54" y2="10" gradientUnits="userSpaceOnUse">
      <stop stop-color="#1E90FF"/>
      <stop offset="1" stop-color="#00C2FF"/>
    </linearGradient>
    <filter id="rocketGlow" x="-30%" y="-30%" width="160%" height="160%">
      <feGaussianBlur stdDeviation="2.5" result="blur"/>
      <feColorMatrix in="blur" type="matrix" values="0 0 0 0 0 0 0 0 0 0.76 0 0 0 0 1 0 0 0 0.52 0"/>
      <feMerge>
        <feMergeNode/>
        <feMergeNode in="SourceGraphic"/>
      </feMerge>
    </filter>
  </defs>
  <path d="M38.5 10.8c5.1-2.2 10.4-2.2 14.7-.9 1.3 4.3 1.3 9.6-.9 14.7-2.2 5.2-6.8 10.9-13.9 17l-15.9-15.9c6.1-7.1 11-12.7 16-14.9Z" stroke="url(#rocketStroke)" stroke-width="4" stroke-linejoin="round" filter="url(#rocketGlow)"/>
  <path d="M21.7 27.4 13 30.2 9.8 42.1l13.6-5" stroke="url(#rocketStroke)" stroke-width="4" stroke-linecap="round" stroke-linejoin="round"/>
  <path d="M36.6 42.3 33.8 51 21.9 54.2l5-13.6" stroke="url(#rocketStroke)" stroke-width="4" stroke-linecap="round" stroke-linejoin="round"/>
  <path d="M25.1 38.9 17 47" stroke="#F4F8FB" stroke-width="4" stroke-linecap="round"/>
  <path d="M39.5 25.4a5 5 0 1 0 0-10 5 5 0 0 0 0 10Z" stroke="#00C2FF" stroke-width="4"/>
</svg>
